<?xml version="1.0" encoding="iso-8859-1"?>
<!-- Uploaded to: SVG Repo, www.svgrepo.com, Generator: SVG Repo Mixer Tools -->
<svg version="1.1" id="Layer_1" xmlns="http://www.w3.org/2000/svg" xmlns:xlink="http://www.w3.org/1999/xlink" 
	 viewBox="0 0 509.287 509.287" xml:space="preserve">
<circle style="fill:#FBD303;" cx="254.644" cy="254.644" r="254.644"/>
<path style="fill:#646B79;" d="M486.57,51.2c0-6.442-5.086-11.528-11.528-11.528H34.246c-6.442,0-11.528,5.086-11.528,11.528v266.85
	h464.191V51.2H486.57z"/>
<path style="fill:#F1F3F7;" d="M22.718,318.05v53.574c0,6.442,5.086,11.528,11.528,11.528h440.795
	c6.442,0,11.528-5.086,11.528-11.528V318.05H22.718z"/>
<rect x="45.436" y="62.05" style="fill:#FCFCFD;" width="418.755" height="233.96"/>
<rect x="221.415" y="383.491" style="fill:#BDBDBE;" width="66.458" height="53.234"/>
<path style="fill:#F1F3F7;" d="M311.608,436.387H197.679c-18.31,0-33.229,14.919-33.229,33.229h180.387
	C344.837,451.306,329.918,436.387,311.608,436.387z"/>
<g>
	<circle style="fill:#F0582F;" cx="254.644" cy="350.601" r="11.528"/>
	<polygon style="fill:#F0582F;" points="391.968,263.46 106.13,263.46 106.13,105.452 115.624,105.452 115.624,253.626 
		391.968,253.626 	"/>
</g>
<rect x="146.479" y="214.633" style="fill:#FBD303;" width="29.16" height="28.143"/>
<rect x="190.22" y="178.691" style="fill:#71D456;" width="29.16" height="63.746"/>
<rect x="234.299" y="141.054" style="fill:#646B79;" width="29.16" height="101.383"/>
<rect x="278.379" y="192.932" style="fill:#6EB1E1;" width="29.16" height="49.844"/>
<rect x="322.119" y="105.452" style="fill:#F0582F;" width="29.16" height="136.985"/>
</svg>